<?xml version="1.0" encoding="UTF-8" standalone="no"?>
<svg
   xmlns:dc="http://purl.org/dc/elements/1.1/"
   xmlns:cc="http://creativecommons.org/ns#"
   xmlns:rdf="http://www.w3.org/1999/02/22-rdf-syntax-ns#"
   xmlns:svg="http://www.w3.org/2000/svg"
   xmlns="http://www.w3.org/2000/svg"
   xmlns:sodipodi="http://sodipodi.sourceforge.net/DTD/sodipodi-0.dtd"
   xmlns:inkscape="http://www.inkscape.org/namespaces/inkscape"
   width="210mm"
   height="297mm"
   viewBox="0 0 210 297"
   version="1.1"
   id="svg8"
   inkscape:version="1.0.2-2 (e86c870879, 2021-01-15)"
   sodipodi:docname="delta_medical.svg"
   inkscape:export-filename="C:\Users\HB\Desktop\proposed_logos_as_png.png"
   inkscape:export-xdpi="95.5"
   inkscape:export-ydpi="95.5">
  <defs
     id="defs2" />
  <sodipodi:namedview
     id="base"
     pagecolor="#ffffff"
     bordercolor="#666666"
     borderopacity="1.0"
     inkscape:pageopacity="0.0"
     inkscape:pageshadow="2"
     inkscape:zoom="0.35000001"
     inkscape:cx="370.24933"
     inkscape:cy="727.8273"
     inkscape:document-units="mm"
     inkscape:current-layer="g1113-4-4"
     inkscape:document-rotation="0"
     showgrid="false"
     showguides="true"
     inkscape:window-width="1366"
     inkscape:window-height="705"
     inkscape:window-x="-8"
     inkscape:window-y="-8"
     inkscape:window-maximized="1" />
  <metadata
     id="metadata5">
    <rdf:RDF>
      <cc:Work
         rdf:about="">
        <dc:format>image/svg+xml</dc:format>
        <dc:type
           rdf:resource="http://purl.org/dc/dcmitype/StillImage" />
        <dc:title></dc:title>
      </cc:Work>
    </rdf:RDF>
  </metadata>
  <g
     inkscape:label="Layer 1"
     inkscape:groupmode="layer"
     id="layer1">
    <path
       style="fill:#000000;stroke-width:0.264583"
       id="path887"
       d="" />
    <g
       id="g1113"
       style="fill:#96c137;fill-opacity:1">
      <g
         id="g1113-4-4"
         transform="matrix(0.67460737,0,0,0.67460737,-15.952774,112.72385)">
        <g
           id="g978"
           transform="matrix(0.69117049,0,0,0.69117049,118.3226,-85.488804)" />
        <path
           style="fill:#31c4cf;stroke:none;stroke-width:1.58607"
           d="m 129.55557,-15.534036 c -23.04887,0 -51.441242,-4.495892 -72.959519,5.318087 -36.17766,16.4983722 -37.792115,69.257658 -4.752071,89.657774 21.605688,13.340487 53.48107,8.119135 77.71159,8.119135 0,20.57458 -5.04216,49.00026 2.97706,68.20131 15.22003,36.44487 68.20767,44.24202 90.39056,9.51647 13.70529,-21.4533 8.14135,-53.45717 8.14135,-77.71778 23.669,0 58.99567,3.871616 79.30226,-9.682988 32.46857,-21.672167 26.89668,-72.4440621 -7.92883,-88.15733 -21.16144,-9.547722 -48.71,-5.254678 -71.37343,-5.254678 0,-24.271764 5.55599,-56.25072 -8.14135,-77.717805 -21.12338,-33.107129 -72.88502,-29.169849 -89.13278,6.344323 -9.29444,20.312741 -4.23484,49.420566 -4.23484,71.373482 m 47.5839,-64.272763 c 9.74801,-2.119312 18.3414,7.294365 17.05505,16.690442 -0.85646,6.254363 -5.33553,11.008489 -5.8621,17.44684 -2.52184,30.83809 9.10408,77.240388 -31.81355,87.852818 -17.90205,4.644018 -35.84853,-0.605876 -53.92661,1.238722 -8.60608,0.877106 -16.883817,7.970027 -25.377243,6.96448 C 64.155266,48.83846 59.895045,31.050609 70.964293,23.894237 c 9.178634,-5.935079 16.300098,1.925517 25.283628,3.167394 16.763249,2.320416 51.693439,5.210271 64.960989,-6.472772 15.53246,-13.6751637 14.14307,-48.835318 10.80914,-67.844448 -1.86205,-10.623541 -13.73227,-28.45312 5.12142,-32.55121 M 280.23924,21.634077 c 17.27238,-1.375126 21.44533,23.895849 4.74552,28.347941 -8.39509,2.239537 -14.42218,-5.103988 -22.19872,-6.46957 -18.49523,-3.25147 -54.37387,-4.550491 -67.58273,10.889957 -17.45954,20.41283 -4.21896,58.418415 -1.00398,80.740845 1.25456,8.70917 -5.0358,16.25097 -13.88928,16.62369 -7.42922,0.31424 -14.48408,-6.02548 -15.017,-13.45152 -0.5678,-7.94305 6.40617,-14.26678 6.99939,-22.2051 1.56386,-20.93144 -5.64328,-47.744082 5.60993,-66.615195 18.05751,-30.278237 55.72998,-20.106729 84.85988,-22.292317 6.3776,-0.477437 11.18981,-5.067516 17.47699,-5.568731 z"
           id="path859"
           inkscape:transform-center-x="9.1712499"
           inkscape:transform-center-y="-178.8394"
           inkscape:export-xdpi="163.729"
           inkscape:export-ydpi="163.729" />
      </g>
    </g>
  </g>
</svg>
